<?xml version="1.0" encoding="UTF-8" standalone="no"?>
<!-- Created with Inkscape (http://www.inkscape.org/) -->

<svg
   width="68.112831mm"
   height="17.824976mm"
   viewBox="0 0 68.112831 17.824976"
   version="1.1"
   id="svg5"
   inkscape:export-filename="/home/jacopo/RGBCraft/AgenziaTributi.png"
   inkscape:export-xdpi="162.47"
   inkscape:export-ydpi="162.47"
   inkscape:version="1.1.1 (3bf5ae0d25, 2021-09-20)"
   sodipodi:docname="AgenziaTributi.svg"
   xmlns:inkscape="http://www.inkscape.org/namespaces/inkscape"
   xmlns:sodipodi="http://sodipodi.sourceforge.net/DTD/sodipodi-0.dtd"
   xmlns="http://www.w3.org/2000/svg"
   xmlns:svg="http://www.w3.org/2000/svg">
  <sodipodi:namedview
     id="namedview7"
     pagecolor="#ffffff"
     bordercolor="#666666"
     borderopacity="1.0"
     inkscape:pageshadow="2"
     inkscape:pageopacity="0.0"
     inkscape:pagecheckerboard="0"
     inkscape:document-units="mm"
     showgrid="false"
     fit-margin-top="0"
     fit-margin-left="0"
     fit-margin-right="0"
     fit-margin-bottom="0"
     inkscape:zoom="3.6233468"
     inkscape:cx="107.91128"
     inkscape:cy="60.717346"
     inkscape:window-width="1600"
     inkscape:window-height="1131"
     inkscape:window-x="1440"
     inkscape:window-y="32"
     inkscape:window-maximized="1"
     inkscape:current-layer="layer1" />
  <defs
     id="defs2">
    <rect
       x="123.07099"
       y="138.84988"
       width="304.81287"
       height="302.01956"
       id="rect1903" />
  </defs>
  <g
     inkscape:label="Livello 1"
     inkscape:groupmode="layer"
     id="layer1"
     transform="translate(-8.6328682,-36.996698)">
    <g
       aria-label="Agenzia
Tributi"
       transform="scale(0.26458333)"
       id="text1901"
       style="font-size:40px;line-height:0.95;letter-spacing:0px;word-spacing:0px;white-space:pre;shape-inside:url(#rect1903)">
      <path
         d="m 139.96484,161.79492 h -9.72656 l -0.97656,2.44141 h 0.97656 q 1.44531,0 2.05078,0.5664 0.625,0.54688 0.625,1.44532 0,0.8789 -0.625,1.44531 -0.60547,0.54687 -2.05078,0.54687 h -5.39062 q -1.44532,0 -2.05078,-0.54687 -0.625,-0.56641 -0.625,-1.46484 0,-0.89844 0.64453,-1.46485 0.64453,-0.5664 2.1289,-0.52734 l 6.28906,-15.66406 h -2.61718 q -1.44531,0 -2.07031,-0.54688 -0.60547,-0.56641 -0.60547,-1.46484 0,-0.89844 0.60547,-1.44532 0.625,-0.5664 2.07031,-0.5664 l 8.65234,0.0195 7.96875,19.66797 q 1.40625,0 1.85547,0.3125 0.89844,0.64453 0.89844,1.69922 0,0.8789 -0.60547,1.44531 -0.60547,0.54687 -2.05078,0.54687 h -5.39063 q -1.44531,0 -2.07031,-0.54687 -0.60547,-0.56641 -0.60547,-1.46484 0,-0.87891 0.60547,-1.42579 0.625,-0.5664 2.07031,-0.5664 h 0.97656 z m -1.66015,-4.0039 -3.22266,-7.92969 -3.24219,7.92969 z"
         style="font-weight:bold;font-family:'Courier New';-inkscape-font-specification:'Courier New Bold';fill:#ff6600"
         id="path21" />
      <path
         d="m 163.48047,151.69727 v -1.19141 h 4.6875 q 1.44531,0 2.05078,0.56641 0.625,0.54687 0.625,1.44531 0,0.8789 -0.625,1.44531 -0.60547,0.54688 -2.05078,0.54688 h -0.6836 v 14.57031 q 0,2.10937 -0.89843,3.67187 -0.87891,1.58203 -2.71485,2.71485 -1.83593,1.13281 -4.14062,1.13281 h -4.53125 q -1.44531,0 -2.07031,-0.56641 -0.60547,-0.54687 -0.60547,-1.42578 0,-0.89844 0.60547,-1.46484 0.625,-0.54688 2.07031,-0.54688 h 4.41406 q 1.83594,0 2.85156,-0.99609 1.01563,-0.99609 1.01563,-2.51953 v -1.95313 q -1.32813,0.85938 -2.71485,1.28907 -1.36718,0.42968 -2.8125,0.42968 -4.08203,0 -6.83593,-2.71484 -2.75391,-2.73438 -2.75391,-6.73828 0,-4.02344 2.75391,-6.73828 2.7539,-2.73438 6.83593,-2.73438 1.52344,0 2.89063,0.44922 1.38672,0.42969 2.63672,1.32813 z m -0.0195,7.67578 q 0,-2.20703 -1.64063,-3.82813 -1.62109,-1.62109 -3.90625,-1.62109 -2.28515,0 -3.92578,1.62109 -1.62109,1.6211 -1.62109,3.82813 0,2.22656 1.62109,3.84765 1.64063,1.60157 3.92578,1.60157 2.28516,0 3.90625,-1.60157 1.64063,-1.62109 1.64063,-3.84765 z"
         style="font-weight:bold;font-family:'Courier New';-inkscape-font-specification:'Courier New Bold';fill:#ff6600"
         id="path23" />
      <path
         d="m 193.12891,161.4043 h -16.42579 q 0.625,1.5625 2.20704,2.51953 1.60156,0.95703 4.3164,0.95703 2.22656,0 5.91797,-0.95703 1.52344,-0.39063 2.10938,-0.39063 0.80078,0 1.34765,0.56641 0.54688,0.56641 0.54688,1.42578 0,0.78125 -0.58594,1.32813 -0.78125,0.72265 -3.80859,1.38671 -3.02735,0.64454 -5.82032,0.64454 -4.80468,0 -7.69531,-2.71485 -2.87109,-2.71484 -2.87109,-6.67969 0,-4.21875 3.10547,-6.85546 3.125,-2.65625 7.1875,-2.65625 2.4414,0 4.47265,0.85937 2.05078,0.85938 3.04688,1.85547 1.40625,1.44531 2.32422,3.57422 0.625,1.48437 0.625,3.4375 z m -4.4336,-4.00391 q -0.91797,-1.71875 -2.40234,-2.55859 -1.48438,-0.85938 -3.53516,-0.85938 -2.03125,0 -3.51562,0.85938 -1.48438,0.83984 -2.42188,2.55859 z"
         style="font-weight:bold;font-family:'Courier New';-inkscape-font-specification:'Courier New Bold';fill:#ff6600"
         id="path25" />
      <path
         d="m 203.03125,150.50586 v 1.34766 q 1.09375,-0.9375 2.40234,-1.40625 1.32813,-0.46875 2.8711,-0.46875 3.55468,0 5.625,2.20703 1.64062,1.75781 1.64062,4.60937 v 7.44141 q 1.26953,0 1.875,0.5664 0.60547,0.54688 0.60547,1.44532 0,0.8789 -0.625,1.44531 -0.60547,0.54687 -2.05078,0.54687 h -3.61328 q -1.44531,0 -2.07031,-0.54687 -0.60547,-0.56641 -0.60547,-1.46484 0,-0.87891 0.60547,-1.42579 0.60546,-0.5664 1.875,-0.5664 v -7.5586 q 0,-1.30859 -0.70313,-1.91406 -0.91797,-0.78125 -2.75391,-0.78125 -1.38671,0 -2.4414,0.54688 -1.03516,0.52734 -2.63672,2.26562 v 7.44141 q 1.54297,0 1.99219,0.29297 0.95703,0.58593 0.95703,1.71875 0,0.8789 -0.625,1.44531 -0.60547,0.54687 -2.05078,0.54687 h -4.55078 q -1.44532,0 -2.07032,-0.54687 -0.60547,-0.56641 -0.60547,-1.46484 0,-1.09375 0.9375,-1.69922 0.46875,-0.29297 2.01172,-0.29297 v -9.72656 q -1.26953,0 -1.875,-0.56641 -0.60547,-0.56641 -0.60547,-1.44531 0,-0.87891 0.60547,-1.42578 0.625,-0.56641 2.07032,-0.56641 z"
         style="font-weight:bold;font-family:'Courier New';-inkscape-font-specification:'Courier New Bold';fill:#ff6600"
         id="path27" />
      <path
         d="m 228.92969,164.23633 h 7.03125 q 0.0586,-1.11328 0.60547,-1.66016 0.5664,-0.5664 1.38671,-0.5664 0.89844,0 1.44532,0.625 0.5664,0.60546 0.5664,2.05078 v 3.55468 h -17.42187 v -3.32031 l 10.54687,-10.41015 h -6.13281 v 0.39062 q 0,1.42578 -0.56641,2.05078 -0.54687,0.60547 -1.44531,0.60547 -0.89844,0 -1.46484,-0.60547 -0.54688,-0.625 -0.54688,-2.05078 l 0.0195,-4.39453 h 16.5625 v 3.28125 z"
         style="font-weight:bold;font-family:'Courier New';-inkscape-font-specification:'Courier New Bold';fill:#ff6600"
         id="path29" />
      <path
         d="m 256.52734,142.9082 v 4.23828 h -4.76562 v -4.23828 z m 0.54688,7.59766 v 13.73047 h 4.80469 q 1.44531,0 2.05078,0.5664 0.625,0.54688 0.625,1.44532 0,0.8789 -0.625,1.44531 -0.60547,0.54687 -2.05078,0.54687 h -13.61329 q -1.44531,0 -2.07031,-0.54687 -0.60547,-0.56641 -0.60547,-1.46484 0,-0.87891 0.60547,-1.42579 0.625,-0.5664 2.07031,-0.5664 h 4.80469 v -9.72656 h -3.22265 q -1.42579,0 -2.05079,-0.54688 -0.625,-0.56641 -0.625,-1.46484 0,-0.87891 0.60547,-1.42578 0.625,-0.56641 2.07032,-0.56641 z"
         style="font-weight:bold;font-family:'Courier New';-inkscape-font-specification:'Courier New Bold';fill:#ff6600"
         id="path31" />
      <path
         d="m 282.69922,168.24023 v -0.9375 q -1.50391,0.80079 -3.32031,1.19141 -1.81641,0.41016 -3.30079,0.41016 -3.22265,0 -5.23437,-1.69922 -2.01172,-1.71875 -2.01172,-3.78906 0,-2.51954 2.55859,-4.66797 2.57813,-2.16797 7.10938,-2.16797 1.81641,0 4.19922,0.39062 v -0.95703 q 0,-0.89844 -0.78125,-1.46484 -0.76172,-0.56641 -2.92969,-0.56641 -1.77734,0 -4.60937,0.70313 -1.05469,0.2539 -1.64063,0.2539 -0.80078,0 -1.36719,-0.5664 -0.54687,-0.58594 -0.54687,-1.48438 0,-0.50781 0.19531,-0.8789 0.19531,-0.3711 0.54688,-0.58594 0.35156,-0.23438 1.46484,-0.54688 1.48437,-0.41015 3.02734,-0.64453 1.54297,-0.2539 2.79297,-0.2539 3.73047,0 5.78125,1.62109 2.07031,1.60156 2.07031,4.39453 v 8.24219 h 0.6836 q 1.44531,0 2.05078,0.5664 0.625,0.54688 0.625,1.44532 0,0.8789 -0.625,1.44531 -0.60547,0.54687 -2.05078,0.54687 z m 0,-7.16796 q -2.40235,-0.46875 -4.4336,-0.46875 -2.4414,0 -4.19921,1.1914 -1.09375,0.76172 -1.09375,1.54297 0,0.56641 0.52734,0.91797 0.97656,0.64453 2.67578,0.64453 1.44531,0 3.26172,-0.56641 1.83594,-0.5664 3.26172,-1.54296 z"
         style="font-weight:bold;font-family:'Courier New';-inkscape-font-specification:'Courier New Bold';fill:#ff6600"
         id="path33" />
      <path
         d="m 137.01562,186.88753 v 15.66406 h 2.69532 q 1.44531,0 2.05078,0.56641 0.625,0.54687 0.625,1.44531 0,0.8789 -0.625,1.44531 -0.60547,0.54688 -2.05078,0.54688 h -9.375 q -1.44532,0 -2.07032,-0.54688 -0.60546,-0.56641 -0.60546,-1.46484 0,-0.87891 0.60546,-1.42578 0.625,-0.56641 2.07032,-0.56641 h 2.67578 v -15.66406 h -4.33594 v 3.78906 q 0,1.44531 -0.56641,2.07031 -0.54687,0.60547 -1.44531,0.60547 -0.8789,0 -1.44531,-0.60547 -0.54687,-0.625 -0.54687,-2.07031 v -7.8125 l 20.74218,0.0195 v 7.79297 q 0,1.44531 -0.5664,2.07031 -0.54688,0.60547 -1.44532,0.60547 -0.8789,0 -1.44531,-0.60547 -0.54687,-0.625 -0.54687,-2.07031 v -3.78906 z"
         style="font-weight:bold;font-family:'Courier New';-inkscape-font-specification:'Courier New Bold';fill:#2c5aa0"
         id="path35" />
      <path
         d="m 158.24609,188.82112 v 2.5 q 2.51953,-1.81641 3.96485,-2.42187 1.46484,-0.60547 2.73437,-0.60547 1.95313,0 3.78906,1.44531 1.25,0.97656 1.25,1.99219 0,0.85937 -0.60546,1.46484 -0.58594,0.58594 -1.42579,0.58594 -0.74218,0 -1.5625,-0.74219 -0.82031,-0.74219 -1.46484,-0.74219 -0.83984,0 -2.51953,1.05469 -1.66016,1.05469 -4.16016,3.16406 v 6.03516 h 5.70313 q 1.44531,0 2.05078,0.56641 0.625,0.54687 0.625,1.44531 0,0.8789 -0.625,1.44531 -0.60547,0.54688 -2.05078,0.54688 h -12.08985 q -1.44531,0 -2.07031,-0.54688 -0.60547,-0.56641 -0.60547,-1.46484 0,-0.87891 0.60547,-1.42578 0.625,-0.56641 2.07031,-0.56641 h 2.38282 v -9.72656 h -1.44532 q -1.44531,0 -2.07031,-0.54688 -0.60547,-0.5664 -0.60547,-1.46484 0,-0.87891 0.60547,-1.42578 0.625,-0.56641 2.07031,-0.56641 z"
         style="font-weight:bold;font-family:'Courier New';-inkscape-font-specification:'Courier New Bold';fill:#2c5aa0"
         id="path37" />
      <path
         d="m 184.51562,181.22346 v 4.23829 H 179.75 v -4.23829 z m 0.54688,7.59766 v 13.73047 h 4.80469 q 1.44531,0 2.05078,0.56641 0.625,0.54687 0.625,1.44531 0,0.8789 -0.625,1.44531 -0.60547,0.54688 -2.05078,0.54688 h -13.61328 q -1.44532,0 -2.07032,-0.54688 -0.60547,-0.56641 -0.60547,-1.46484 0,-0.87891 0.60547,-1.42578 0.625,-0.56641 2.07032,-0.56641 h 4.80468 v -9.72656 h -3.22265 q -1.42578,0 -2.05078,-0.54688 -0.625,-0.5664 -0.625,-1.46484 0,-0.87891 0.60546,-1.42578 0.625,-0.56641 2.07032,-0.56641 z"
         style="font-weight:bold;font-family:'Courier New';-inkscape-font-specification:'Courier New Bold';fill:#2c5aa0"
         id="path39" />
      <path
         d="m 202.03516,181.22346 v 8.98438 q 1.46484,-0.95703 2.96875,-1.42578 1.52343,-0.48828 3.0664,-0.48828 4.16016,0 7.05078,2.87109 2.89063,2.87109 2.89063,6.93359 0,3.88672 -2.75391,6.50391 -2.7539,2.59766 -7.26562,2.59766 -1.60157,0 -3.08594,-0.41016 -1.48438,-0.41016 -2.87109,-1.21094 v 0.97657 h -4.6875 q -1.44532,0 -2.07032,-0.54688 -0.60547,-0.56641 -0.60547,-1.46484 0,-0.87891 0.625,-1.42578 0.625,-0.56641 2.05079,-0.56641 h 0.68359 v -17.32422 h -0.68359 q -1.44532,0 -2.07032,-0.54687 -0.60547,-0.56641 -0.60547,-1.46485 0,-0.8789 0.60547,-1.42578 0.625,-0.56641 2.07032,-0.56641 z m 11.97265,16.99219 q 0,-2.48047 -1.73828,-4.19922 -1.73828,-1.71875 -4.25781,-1.71875 -2.5,0 -4.23828,1.71875 -1.73828,1.71875 -1.73828,4.14063 0,2.20703 1.5625,3.63281 1.5625,1.40625 4.41406,1.40625 2.85156,0 4.41406,-1.40625 1.58203,-1.42578 1.58203,-3.57422 z"
         style="font-weight:bold;font-family:'Courier New';-inkscape-font-specification:'Courier New Bold';fill:#2c5aa0"
         id="path41" />
      <path
         d="m 239.59375,188.82112 v 13.73047 q 1.26953,0 1.875,0.56641 0.60547,0.5664 0.60547,1.44531 0,0.8789 -0.625,1.44531 -0.60547,0.54688 -2.05078,0.54688 h -3.8086 v -0.91797 q -1.71875,0.78125 -3.28125,1.17187 -1.5625,0.39063 -2.96875,0.39063 -1.97265,0 -3.41797,-0.82032 -1.44531,-0.83984 -2.28515,-2.30468 -0.60547,-1.05469 -0.60547,-2.63672 v -8.61328 h -0.68359 q -1.44532,0 -2.07032,-0.54688 -0.60547,-0.5664 -0.60547,-1.46484 0,-0.87891 0.60547,-1.42578 0.625,-0.56641 2.07032,-0.56641 h 4.6875 v 11.91406 q 0,1.26953 0.60546,1.875 0.625,0.58594 1.89454,0.58594 1.21093,0 2.59765,-0.46875 1.40625,-0.48828 3.45703,-1.73828 v -8.16406 h -1.44531 q -1.44531,0 -2.07031,-0.54688 -0.60547,-0.5664 -0.60547,-1.46484 0,-0.87891 0.60547,-1.42578 0.625,-0.56641 2.07031,-0.56641 z"
         style="font-weight:bold;font-family:'Courier New';-inkscape-font-specification:'Courier New Bold';fill:#2c5aa0"
         id="path43" />
      <path
         d="m 254.10547,192.82503 v 8.02734 q 0,1.28906 0.52734,1.69922 0.82031,0.64453 2.92969,0.64453 3.06641,0 5.66406,-1.30859 0.9961,-0.50782 1.5625,-0.50782 0.78125,0 1.34766,0.58594 0.58594,0.58594 0.58594,1.42578 0,0.78125 -0.625,1.34766 -0.95704,0.91797 -3.78907,1.69922 -2.8125,0.76172 -4.74609,0.76172 -3.73047,0 -5.60547,-1.60157 -1.85547,-1.62109 -1.85547,-3.96484 v -8.80859 h -1.44531 q -1.44531,0 -2.07031,-0.54688 -0.60547,-0.5664 -0.60547,-1.46484 0,-0.87891 0.60547,-1.42578 0.625,-0.56641 2.07031,-0.56641 h 1.44531 v -3.61328 q 0,-1.44531 0.54688,-2.05078 0.5664,-0.625 1.46484,-0.625 0.87891,0 1.42578,0.625 0.56641,0.60547 0.56641,2.05078 v 3.61328 h 7.40234 q 1.44531,0 2.05078,0.56641 0.625,0.54687 0.625,1.44531 0,0.87891 -0.625,1.44531 -0.60547,0.54688 -2.05078,0.54688 z"
         style="font-weight:bold;font-family:'Courier New';-inkscape-font-specification:'Courier New Bold';fill:#2c5aa0"
         id="path45" />
      <path
         d="m 280.53125,181.22346 v 4.23829 h -4.76563 v -4.23829 z m 0.54687,7.59766 v 13.73047 h 4.80469 q 1.44531,0 2.05078,0.56641 0.625,0.54687 0.625,1.44531 0,0.8789 -0.625,1.44531 -0.60547,0.54688 -2.05078,0.54688 h -13.61328 q -1.44531,0 -2.07031,-0.54688 -0.60547,-0.56641 -0.60547,-1.46484 0,-0.87891 0.60547,-1.42578 0.625,-0.56641 2.07031,-0.56641 h 4.80469 v -9.72656 h -3.22266 q -1.42578,0 -2.05078,-0.54688 -0.625,-0.5664 -0.625,-1.46484 0,-0.87891 0.60547,-1.42578 0.625,-0.56641 2.07031,-0.56641 z"
         style="font-weight:bold;font-family:'Courier New';-inkscape-font-specification:'Courier New Bold';fill:#2c5aa0"
         id="path47" />
    </g>
    <g
       aria-label="t"
       id="text20435-0"
       style="font-size:28.2222px;line-height:1.25;letter-spacing:0px;word-spacing:0px;fill:#ff6600;stroke-width:0.264583">
      <path
         d="m 21.378223,44.29347 v 5.663733 q 0,0.909505 0.37207,1.198892 0.578775,0.454753 2.067056,0.454753 2.163518,0 3.996307,-0.923285 0.702799,-0.35829 1.10243,-0.35829 0.551215,0 0.950846,0.413411 0.413411,0.413411 0.413411,1.005967 0,0.551215 -0.440972,0.950846 -0.675238,0.647677 -2.673392,1.198892 -1.984374,0.537435 -3.34863,0.537435 -2.632051,0 -3.954967,-1.129991 -1.309135,-1.143771 -1.309135,-2.797415 V 44.29347 h -1.019748 q -1.019747,0 -1.460719,-0.38585 -0.427192,-0.399631 -0.427192,-1.033528 0,-0.620116 0.427192,-1.005967 0.440972,-0.399631 1.460719,-0.399631 h 1.019748 v -2.549368 q 0,-1.019748 0.38585,-1.446939 0.399631,-0.440972 1.033528,-0.440972 0.620117,0 1.005967,0.440972 0.399631,0.427191 0.399631,1.446939 v 2.549368 h 5.222761 q 1.019747,0 1.446939,0.399631 0.440971,0.385851 0.440971,1.019748 0,0.620116 -0.440971,1.019747 -0.427192,0.38585 -1.446939,0.38585 z"
         style="font-weight:bold;font-family:'Courier New';-inkscape-font-specification:'Courier New Bold';fill:#214478"
         id="path128" />
    </g>
    <text
       xml:space="preserve"
       style="font-style:normal;font-weight:normal;font-size:10.5833px;line-height:1.25;font-family:sans-serif;letter-spacing:0px;word-spacing:0px;fill:#000000;fill-opacity:1;stroke:none;stroke-width:0.264583"
       x="19.43095"
       y="79.058495"
       id="text34945"><tspan
         sodipodi:role="line"
         id="tspan34943"
         style="stroke-width:0.264583"
         x="19.43095"
         y="79.058495" /></text>
    <text
       xml:space="preserve"
       style="font-style:normal;font-weight:normal;font-size:10.5833px;line-height:1.25;font-family:sans-serif;letter-spacing:0px;word-spacing:0px;fill:#000000;fill-opacity:1;stroke:none;stroke-width:0.264583"
       x="33.12785"
       y="18.967079"
       id="text37393"><tspan
         sodipodi:role="line"
         id="tspan37391"
         style="stroke-width:0.264583"
         x="33.12785"
         y="18.967079" /></text>
    <g
       aria-label="A"
       id="text20435"
       style="font-size:29.9861px;line-height:1.25;letter-spacing:0px;word-spacing:0px;fill:#ff6600;stroke-width:0.264583">
      <path
         d="M 21.971411,49.925275 H 14.67987 l -0.732083,1.830206 h 0.732083 q 1.083482,0 1.537373,0.424608 0.468533,0.409966 0.468533,1.083482 0,0.658874 -0.468533,1.083482 -0.453891,0.409966 -1.537373,0.409966 h -4.041096 q -1.0834819,0 -1.537373,-0.409966 -0.4685328,-0.424608 -0.4685328,-1.098124 0,-0.673516 0.4831744,-1.098124 0.4831745,-0.424608 1.5959394,-0.395324 l 4.714612,-11.742604 h -1.961981 q -1.083482,0 -1.552015,-0.409966 -0.453891,-0.424608 -0.453891,-1.098123 0,-0.673516 0.453891,-1.083483 0.468533,-0.424607 1.552015,-0.424607 l 6.486251,0.01464 5.973793,14.744142 q 1.054199,0 1.390957,0.234266 0.673516,0.483175 0.673516,1.273824 0,0.658874 -0.453892,1.083482 -0.453891,0.409966 -1.537373,0.409966 H 21.95677 q -1.083482,0 -1.552015,-0.409966 -0.453891,-0.424608 -0.453891,-1.098124 0,-0.658874 0.453891,-1.06884 0.468533,-0.424608 1.552015,-0.424608 h 0.732082 z m -1.24454,-3.001539 -2.415872,-5.94451 -2.430514,5.94451 z"
         style="font-weight:bold;font-family:'Courier New';-inkscape-font-specification:'Courier New Bold'"
         id="path125" />
    </g>
  </g>
</svg>
